<svg preserveAspectRatio="xMidYMid meet" data-bbox="0 0 524.844 87.101" viewBox="0 0 524.844 87.101" xmlns="http://www.w3.org/2000/svg" data-type="color" role="img" aria-label="BugSense logo">
    <g>
        <g>
            <path d="M162.38 46.61a14.27 14.27 0 0 1 2.83 9.08q0 7.35-5.53 11.31t-16.11 4h-27V14.44H142q9.69 0 15 3.87a12.58 12.58 0 0 1 5.29 10.74 14 14 0 0 1-2.06 7.67 13.43 13.43 0 0 1-5.53 4.92 14.54 14.54 0 0 1 7.68 4.97zM124.68 21v18.06h16.55q6.21 0 9.57-2.3a7.66 7.66 0 0 0 3.35-6.76 7.66 7.66 0 0 0-3.35-6.74c-2.24-1.54-5.43-2.3-9.57-2.3zm28.9 41.17q3.46-2.25 3.47-7.1 0-9.45-13.8-9.45h-18.57v18.79h18.57q6.85 0 10.33-2.26z" fill="#4f4768" data-color="1"></path>
            <path d="M217.27 28.16V71h-7.35v-6.51a15.57 15.57 0 0 1-6.17 5.13 19.3 19.3 0 0 1-8.36 1.82q-8.55 0-13.48-4.73T177 52.79V28.16h7.75V51.9q0 6.21 3 9.4c2 2.13 4.85 3.19 8.56 3.19q6.14 0 9.69-3.71t3.55-10.5V28.16z" fill="#4f4768" data-color="1"></path>
            <path d="M273.77 28.16v37q0 11.22-5.57 16.59t-16.63 5.35A39.51 39.51 0 0 1 240 85.44a22.74 22.74 0 0 1-8.88-4.72l3.71-6a21.78 21.78 0 0 0 7.39 4.07 27.93 27.93 0 0 0 9.08 1.5q7.5 0 11.1-3.55T266 66v-3.44a17.2 17.2 0 0 1-6.74 5 22.37 22.37 0 0 1-8.68 1.66 23.38 23.38 0 0 1-11.1-2.63 19.6 19.6 0 0 1-7.79-7.34 20.64 20.64 0 0 1-2.82-10.78 20.62 20.62 0 0 1 2.82-10.78 19.33 19.33 0 0 1 7.79-7.31 23.71 23.71 0 0 1 11.1-2.58 22.72 22.72 0 0 1 9 1.77 16.77 16.77 0 0 1 6.82 5.25v-6.66zM259 60.62a13.14 13.14 0 0 0 5.24-5 13.78 13.78 0 0 0 1.9-7.22 13.06 13.06 0 0 0-4.12-10 16.59 16.59 0 0 0-21.23 0 13.09 13.09 0 0 0-4.11 10 13.78 13.78 0 0 0 1.9 7.22 13.14 13.14 0 0 0 5.24 5 17.16 17.16 0 0 0 15.18 0z" fill="#4f4768" data-color="1"></path>
            <path d="M293.34 69.62a25.31 25.31 0 0 1-9.34-5.13l3-6.29a24.83 24.83 0 0 0 8.27 4.72 30.4 30.4 0 0 0 10.37 1.82q7 0 10.49-2.39a7.32 7.32 0 0 0 3.49-6.35 6.27 6.27 0 0 0-1.9-4.73 12.7 12.7 0 0 0-4.72-2.76q-2.79-1-7.87-2.18a80.58 80.58 0 0 1-10.29-3.07 17 17 0 0 1-6.7-4.72 12.62 12.62 0 0 1-2.79-8.6 14.55 14.55 0 0 1 2.38-8.16A16.37 16.37 0 0 1 295 16a29.32 29.32 0 0 1 12-2.18 38.1 38.1 0 0 1 9.85 1.29 26.14 26.14 0 0 1 8.32 3.72l-2.67 6.46a29.53 29.53 0 0 0-7.59-3.44 28.29 28.29 0 0 0-7.91-1.2q-6.86 0-10.29 2.51a7.66 7.66 0 0 0-3.43 6.46 6.19 6.19 0 0 0 1.94 4.72 13.38 13.38 0 0 0 4.8 2.82 72.56 72.56 0 0 0 7.79 2.14 80.33 80.33 0 0 1 10.25 3.07 17.37 17.37 0 0 1 6.66 4.68 12.33 12.33 0 0 1 2.79 8.48 14.42 14.42 0 0 1-2.43 8.12 16.21 16.21 0 0 1-7.34 5.81 30.31 30.31 0 0 1-12.11 2.14 38.66 38.66 0 0 1-12.29-1.98z" fill="#4f4768" data-color="1"></path>
            <path d="M377.49 52.14h-34.71a13.41 13.41 0 0 0 5 9.08 16.21 16.21 0 0 0 10.54 3.43 15.88 15.88 0 0 0 12.35-5.16l4.28 5a18.74 18.74 0 0 1-7.23 5.17 27.18 27.18 0 0 1-21.67-1 19.84 19.84 0 0 1-8.11-7.79A22.37 22.37 0 0 1 335 49.56a22.68 22.68 0 0 1 2.79-11.23 20 20 0 0 1 7.66-7.79 21.93 21.93 0 0 1 11-2.78 21.47 21.47 0 0 1 10.94 2.78 19.69 19.69 0 0 1 7.61 7.79 23.79 23.79 0 0 1 2.7 11.47 21.56 21.56 0 0 1-.21 2.34zm-30.31-14.45a13.68 13.68 0 0 0-4.4 8.88h27.44a13.72 13.72 0 0 0-4.4-8.84 14.44 14.44 0 0 0-18.64 0z" fill="#4f4768" data-color="1"></path>
            <path d="M425 32.48q4.8 4.73 4.8 13.85V71H422V47.22q0-6.22-3-9.37t-8.5-3.15c-4.2 0-7.5 1.23-9.93 3.68s-3.63 6-3.63 10.53V71h-7.75V28.16h7.43v6.46a15.09 15.09 0 0 1 6.38-5.09 22.24 22.24 0 0 1 9-1.77q8.19 0 13 4.72z" fill="#4f4768" data-color="1"></path>
            <path d="M447.15 70a22.18 22.18 0 0 1-7.59-3.59l3.23-6.14a22.85 22.85 0 0 0 6.86 3.23 28.15 28.15 0 0 0 8.15 1.22q10.17 0 10.17-5.82a3.79 3.79 0 0 0-1.37-3.07 8.78 8.78 0 0 0-3.43-1.65q-2.06-.53-5.85-1.17a57.41 57.41 0 0 1-8.44-1.86 13 13 0 0 1-5.61-3.55 9.89 9.89 0 0 1-2.34-7 11 11 0 0 1 4.84-9.33q4.85-3.51 13-3.51a35.87 35.87 0 0 1 8.56 1 23.13 23.13 0 0 1 7 2.82L471 37.77a22.27 22.27 0 0 0-12.35-3.39c-3.28 0-5.79.54-7.51 1.61a4.89 4.89 0 0 0-2.58 4.28 4.06 4.06 0 0 0 1.45 3.31 9.24 9.24 0 0 0 3.59 1.78q2.14.57 6 1.29a65.17 65.17 0 0 1 8.35 1.9 12.4 12.4 0 0 1 5.51 3.45 9.53 9.53 0 0 1 2.26 6.78 10.67 10.67 0 0 1-5 9.24q-5 3.44-13.52 3.44A35.91 35.91 0 0 1 447.15 70z" fill="#4f4768" data-color="1"></path>
            <path d="M524.72 52.14H490a13.41 13.41 0 0 0 5 9.08 16.21 16.21 0 0 0 10.54 3.43 15.86 15.86 0 0 0 12.34-5.16l4.28 5a18.63 18.63 0 0 1-7.22 5.17 27.18 27.18 0 0 1-21.67-1 19.87 19.87 0 0 1-8.12-7.79 22.36 22.36 0 0 1-2.86-11.3A22.78 22.78 0 0 1 485 38.33a20.08 20.08 0 0 1 7.67-7.79 21.93 21.93 0 0 1 11-2.78 21.49 21.49 0 0 1 10.94 2.78 19.6 19.6 0 0 1 7.5 7.79 23.68 23.68 0 0 1 2.71 11.47c.06.59 0 1.37-.1 2.34zm-30.31-14.45a13.63 13.63 0 0 0-4.4 8.88h27.44a13.72 13.72 0 0 0-4.4-8.84 14.44 14.44 0 0 0-18.64 0z" fill="#4f4768" data-color="1"></path>
            <path d="M38.67 0v38.65H0A38.66 38.66 0 0 1 38.67 0z" fill="#4f4768" data-color="1"></path>
            <path d="M0 80.25V41.59h38.67A38.66 38.66 0 0 1 0 80.25z" fill="#4f4768" data-color="1"></path>
            <path d="M41.6 0v38.65h38.67A38.66 38.66 0 0 0 41.6 0z" fill="#4f4768" data-color="1"></path>
            <path d="M80.27 80.25V41.59H41.6a38.66 38.66 0 0 0 38.66 38.66z" fill="#4f4768" data-color="1"></path>
        </g>
    </g>
</svg>